<svg xmlns="http://www.w3.org/2000/svg" viewBox="0 0 64 64">
  <defs>
    <linearGradient id="bar-fade" x1="0" y1="0" x2="1" y2="0">
      <stop offset="0%" stop-color="#e8593c" stop-opacity="0"/>
      <stop offset="40%" stop-color="#e8593c"/>
      <stop offset="100%" stop-color="#e8593c"/>
    </linearGradient>
  </defs>
  <path d="M22 0V10L43 17Q63 24 69.0 35.5Q75 47 75 68V591Q75 611 69.5 622.5Q64 634 45 641L22 650V660H308Q426 660 489.0 615.5Q552 571 552 492Q552 448 519.0 404.0Q486 360 415 336L554 60Q563 43 574.5 32.5Q586 22 605 14L618 9V0H439L291 315H223V68Q223 49 229.0 37.0Q235 25 254 19L278 10V0ZM223 335H271Q343 335 375.0 373.5Q407 412 407 488Q407 565 377.0 602.5Q347 640 276 640H223Z" fill="#eeeee8" transform="translate(2,46) scale(0.057576,-0.057576)"/>
  <path d="M22 0V10L42 17Q62 23 68.5 35.0Q75 47 75 67V591Q75 611 68.0 623.0Q61 635 41 642L22 650V660H265Q414 660 480.5 605.5Q547 551 547 462Q547 405 519.5 357.5Q492 310 429.0 282.0Q366 254 259 254H225V70Q225 31 264 19L294 10V0ZM225 274H263Q312 274 343.0 290.0Q374 306 389.0 346.0Q404 386 404 457Q404 529 387.5 569.0Q371 609 339.0 624.5Q307 640 259 640H225Z" fill="#e8593c" transform="translate(33,46) scale(0.057576,-0.057576)"/>
  <rect x="4" y="49" width="56" height="2.5" rx="1.25" fill="url(#bar-fade)"/>
</svg>
